<?xml version="1.0" standalone="no"?><!DOCTYPE svg PUBLIC "-//W3C//DTD SVG 1.1//EN" "http://www.w3.org/Graphics/SVG/1.1/DTD/svg11.dtd"><svg t="1585817164639" class="icon" viewBox="0 0 1024 1024" version="1.1" xmlns="http://www.w3.org/2000/svg" p-id="11145" xmlns:xlink="http://www.w3.org/1999/xlink" width="128" height="128"><defs><style type="text/css"></style></defs><path d="M512 96a416 416 0 1 1 0 832 416 416 0 0 1 0-832z m0 64a352 352 0 1 0 0 704 352 352 0 0 0 0-704zM536 448c4.416 0 8 3.584 8 8v272a8 8 0 0 1-8 8h-48a8 8 0 0 1-8-8v-272c0-4.416 3.584-8 8-8zM512 288A48 48 0 1 1 512 384a48 48 0 0 1 0-96z" fill="#000000" p-id="11146"></path></svg>